<?xml version="1.0" encoding="utf-8"?>
<!-- Generator: Adobe Illustrator 22.1.0, SVG Export Plug-In . SVG Version: 6.00 Build 0)  -->
<svg version="1.1" id="Layer_1" xmlns="http://www.w3.org/2000/svg" xmlns:xlink="http://www.w3.org/1999/xlink" x="0px" y="0px"
	 viewBox="0 0 150 150" style="enable-background:new 0 0 150 150;" xml:space="preserve">
<g>
	<g>
		<g>
			<path class="logo-wes" d="M5.1,30.8h12.4v34.4l9.3-14.7h9.9l9.3,14.2V30.8h11.9v53.6H42.9L31.4,66.2L19.8,84.4H5.1V30.8"/>
			<path class="logo-wes" d="M143.7,63.6c-0.8-1.6-1.9-3-3.4-4.2c-1.5-1.3-3.4-2.4-5.5-3.4c-2.2-1-4.7-1.9-7.6-2.8
				c-2.6-0.8-4.7-1.5-6.4-2.1c-1.6-0.6-2.9-1.2-3.9-1.8c-1-0.6-1.6-1.2-2-1.8c-0.4-0.6-0.5-1.2-0.5-2c0-1.3,0.7-2.4,2-3.3
				c1.3-0.8,3.2-1.3,5.4-1.3c2.7,0,5.2,0.4,7.5,1.3c2.3,0.8,4.6,1.9,6.9,3.3l7.6-8.1c-2.9-2.3-6.3-3.9-10.1-4.9
				c-3.8-0.9-7.5-1.4-11.2-1.4c-3.3,0-6.4,0.4-9,1.1c-2.7,0.7-5,1.8-6.9,3.1c-1.9,1.4-3.4,3-4.4,4.9c-1,1.9-1.5,4-1.5,6.2
				c0,2.2,0.4,4.2,1.3,5.8c0.8,1.6,2.1,3.1,3.7,4.3c1.6,1.2,3.6,2.3,5.9,3.3c2.4,1,5,1.9,8.1,2.8c2.4,0.7,4.4,1.3,5.9,1.8
				c1.5,0.6,2.7,1.1,3.5,1.7c0.8,0.6,1.4,1.1,1.7,1.7c0.3,0.6,0.4,1.2,0.4,1.9c0,1.6-0.8,2.8-2.4,3.7c-1.6,0.9-4.3,0.8-6.9,0.8
				l-34.6,0H76.4V63.5h30.3c-2.1-1-4-2.1-5.6-3.3c-2.2-1.7-4-3.7-5.1-6c-0.1-0.2-0.2-0.5-0.3-0.7l-19.3,0V41h18.7
				c0.3-0.9,0.7-1.8,1.2-2.7c1.4-2.6,3.4-4.8,6-6.7c0.4-0.3,0.9-0.6,1.3-0.8H62.3v53.6h25h0.6c17,0,3.8,0,21.6,0c4.5,0,8.7,0,13.1,0
				c3.1,0,6-0.1,8.7-0.8c2.7-0.7,5.1-1.7,7.1-3.1c2-1.3,3.6-3,4.7-4.9c1.1-2,1.7-4.2,1.7-6.6C144.9,67,144.5,65.2,143.7,63.6z"/>
		</g>
	</g>
	<g>
		<g>
			<g>
				<path class="logo-wilson" d="M56.9,115.4l-1-1.6h-4.1v-24h-6.6v29.6h15.9C59.5,118.4,58,117.1,56.9,115.4z"/>
			</g>
			<path class="logo-wilson" d="M26.6,90.1h6.3v29.4H24l-5-9.9l-5,9.9H5.1V90.1h6.5v18.9l4.9-8.1h5.2l4.9,7.8V90.1z"/>
			<g>
				<rect x="35.7" y="99.7" class="logo-wilson" width="6.5" height="19.7"/>
				<rect x="35.7" y="89.8" class="logo-wilson" width="6.5" height="5.9"/>
			</g>
			<g>
				<path class="logo-wilson" d="M80.1,104.8c-0.5-0.4-1.1-0.8-1.7-1.1c-1-0.5-2.2-1.1-3.5-1.5c-1.2-0.4-2.2-0.8-3-1.2
					c-0.8-0.4-1.4-0.7-1.8-1c-0.4-0.3-0.7-0.6-0.9-1c-0.2-0.3-0.3-0.7-0.3-1.1c0-0.7,0.3-1.3,0.9-1.8c0.6-0.5,1.5-0.7,2.5-0.7
					c1.2,0,2.4,0.2,3.5,0.7c1.1,0.5,2.2,1.1,3.2,1.8l3.5-4.5c-1.4-1.3-2.9-2.2-4.7-2.7c-1.8-0.5-3.5-0.8-5.2-0.8
					c-1.6,0-3,0.2-4.2,0.6c-1.3,0.4-2.3,1-3.2,1.7c-0.9,0.7-1.6,1.6-2.1,2.7c-0.5,1-0.7,2.2-0.7,3.4c0,1.2,0.2,2.3,0.6,3.2
					c0.4,0.9,1,1.7,1.7,2.4c0.7,0.7,1.7,1.3,2.8,1.8c1.1,0.5,2.3,1.1,3.7,1.6c1.1,0.4,2,0.7,2.8,1c0.7,0.3,1.3,0.6,1.6,0.9
					c0.4,0.3,0.6,0.6,0.8,1c0.1,0.3,0.2,0.7,0.2,1c0,0.9-0.4,1.6-1.1,2c-0.8,0.5-1.7,0.7-2.9,0.7c-1.6,0-3.1-0.3-4.3-1
					c-1.2-0.6-2.4-1.4-3.5-2.3l-5,3c1.6,2.6,4.8,4,6.8,4.7c2,0.7,4,1,6,1c1.5,0,2.8-0.2,4.1-0.6c1.3-0.4,2.4-1,3.3-1.7
					c0.9-0.7,1.7-1.6,2.2-2.7c0.1-0.3,0.2-0.6,0.4-0.9c-0.4-0.6-0.7-1.3-1.1-1.9C80.7,109.5,80.1,107.2,80.1,104.8z"/>
			</g>
			<path class="logo-wilson" d="M99.6,89.8c2.2,0,4.3,0.4,6.3,1.2c2,0.8,3.7,1.8,5.1,3.2c1.4,1.3,2.6,2.9,3.4,4.7c0.8,1.8,1.3,3.7,1.3,5.8
				c0,2.1-0.4,4-1.3,5.8c-0.8,1.8-2,3.4-3.4,4.7c-1.4,1.3-3.1,2.4-5.1,3.2c-1.9,0.8-4,1.2-6.3,1.2c-2.2,0-4.3-0.4-6.3-1.2
				c-2-0.8-3.7-1.8-5.1-3.2c-1.4-1.3-2.6-2.9-3.4-4.7c-0.8-1.8-1.3-3.7-1.3-5.8c0-2.1,0.4-4,1.3-5.8c0.8-1.8,2-3.4,3.4-4.7
				c1.5-1.3,3.2-2.4,5.1-3.2C95.3,90.2,97.4,89.8,99.6,89.8z M99.6,113.5c1.3,0,2.6-0.2,3.8-0.7c1.2-0.5,2.2-1.1,3.1-1.9
				c0.9-0.8,1.6-1.8,2.1-2.8c0.5-1.1,0.8-2.2,0.8-3.4c0-1.3-0.3-2.5-0.8-3.6c-0.5-1.1-1.2-2.1-2.1-2.9c-0.9-0.8-1.9-1.5-3.1-2
				c-1.2-0.5-2.4-0.7-3.8-0.7c-1.4,0-2.7,0.2-3.8,0.7c-1.2,0.5-2.2,1.1-3.1,2c-0.9,0.8-1.5,1.8-2,2.9c-0.5,1.1-0.7,2.3-0.7,3.6
				c0,1.2,0.2,2.4,0.7,3.4c0.5,1.1,1.2,2,2,2.8c0.9,0.8,1.9,1.5,3.1,1.9C97,113.3,98.2,113.5,99.6,113.5z"/>
			<g>
				<path class="logo-wilson" d="M138.1,89.8v6.3v1.8V108l-6-7.4l-9-10.9h-6.3V96c0.3,0.5,0.6,1.1,0.9,1.6c1,2.2,1.5,4.6,1.5,7
					c0,2.5-0.5,4.8-1.5,7c-0.3,0.6-0.5,1.1-0.9,1.6v6.1h6.9v-18.8l15.3,18.8h6V96.1v-6.3H138.1z"/>
			</g>
		</g>
	</g>
	<g>
		<g>
			<g>
				<g>
					<path class="logo-other" d="M51.5,23.4V7.9h3.8v15.5H51.5z"/>
					<path class="logo-other" d="M73.3,23.4L72,19.7h-6.5l-1.3,3.7h-4l6.3-15.6h4.6l6.3,15.6H73.3z M71.1,17c-1.2-3.4-1.9-5.2-2-5.7
						c-0.1-0.4-0.3-0.8-0.3-1c-0.3,0.9-1,3.1-2.3,6.7H71.1z"/>
					<path class="logo-other" d="M87.1,23.4l-4.3-12.2h-0.1c0.2,2.5,0.2,4.1,0.2,5v7.2h-3.4V7.9h5.1l4.2,11.9h0.1l4.4-11.9h5.1v15.5H95
						v-7.4c0-0.3,0-0.7,0-1.2c0-0.5,0.1-1.7,0.2-3.6h-0.1l-4.6,12.2H87.1z"/>
				</g>
			</g>
			<rect x="5.1" y="7.8" class="logo-other" width="41.3" height="15.6"/>
			<rect x="103.6" y="7.8" class="logo-other" width="41.3" height="15.6"/>
		</g>
	</g>
	<rect x="5.1" y="126.6" class="logo-other" width="139.8" height="15.6"/>
</g>
</svg>
