<?xml version="1.0" encoding="utf-8"?>
<!-- Generator: Adobe Illustrator 16.0.4, SVG Export Plug-In . SVG Version: 6.00 Build 0)  -->
<!DOCTYPE svg PUBLIC "-//W3C//DTD SVG 1.1//EN" "http://www.w3.org/Graphics/SVG/1.1/DTD/svg11.dtd">
<svg version="1.1" id="Layer_1" xmlns="http://www.w3.org/2000/svg" xmlns:xlink="http://www.w3.org/1999/xlink" x="0px" y="0px"
	 width="30px" height="30px" viewBox="0 0 30 30" enable-background="new 0 0 30 30" xml:space="preserve">
<g>
	<defs>
		<path id="SVGID_1_" d="M15.001,27.483C8.107,27.483,2.5,21.883,2.5,15c0-6.884,5.607-12.483,12.501-12.483
			C21.893,2.517,27.5,8.117,27.5,15C27.5,21.883,21.893,27.483,15.001,27.483L15.001,27.483z M25.542,16.708
			c-0.365-0.115-3.305-0.99-6.65-0.455c1.396,3.832,1.965,6.953,2.074,7.602C23.361,22.238,25.066,19.675,25.542,16.708
			L25.542,16.708z M19.171,24.832c-0.158-0.936-0.778-4.196-2.277-8.086c-0.023,0.008-0.047,0.016-0.07,0.023
			c-6.022,2.096-8.185,6.267-8.377,6.659c1.811,1.409,4.086,2.251,6.555,2.251C16.479,25.679,17.89,25.376,19.171,24.832
			L19.171,24.832z M7.068,22.145c0.241-0.413,3.172-5.258,8.679-7.036c0.139-0.044,0.279-0.087,0.421-0.126
			c-0.269-0.606-0.561-1.213-0.866-1.81C9.97,14.767,4.796,14.7,4.329,14.691c-0.004,0.107-0.006,0.217-0.006,0.325
			C4.323,17.754,5.363,20.255,7.068,22.145L7.068,22.145z M4.549,12.833c0.478,0.006,4.876,0.025,9.871-1.299
			c-1.77-3.141-3.678-5.781-3.959-6.167C7.474,6.774,5.241,9.524,4.549,12.833L4.549,12.833z M12.498,4.65
			c0.295,0.395,2.234,3.032,3.984,6.242c3.797-1.421,5.403-3.578,5.596-3.852c-1.886-1.671-4.365-2.687-7.077-2.687
			C14.139,4.354,13.301,4.457,12.498,4.65L12.498,4.65z M23.266,8.274c-0.226,0.304-2.015,2.594-5.962,4.204
			c0.248,0.508,0.486,1.024,0.708,1.544c0.078,0.185,0.155,0.368,0.229,0.551c3.553-0.446,7.083,0.269,7.435,0.343
			C25.652,12.399,24.752,10.088,23.266,8.274L23.266,8.274z"/>
	</defs>
	<use xlink:href="#SVGID_1_"  overflow="visible" fill-rule="evenodd" clip-rule="evenodd" fill="#BBBDC0"/>
	<clipPath id="SVGID_2_">
		<use xlink:href="#SVGID_1_"  overflow="visible"/>
	</clipPath>
</g>
</svg>
