<?xml version="1.0" encoding="utf-8"?>
<!-- Generator: Adobe Illustrator 16.0.4, SVG Export Plug-In . SVG Version: 6.00 Build 0)  -->
<!DOCTYPE svg PUBLIC "-//W3C//DTD SVG 1.1//EN" "http://www.w3.org/Graphics/SVG/1.1/DTD/svg11.dtd">
<svg version="1.1" id="Layer_1" xmlns="http://www.w3.org/2000/svg" xmlns:xlink="http://www.w3.org/1999/xlink" x="0px" y="0px"
	 width="30px" height="30px" viewBox="0 0 30 30" enable-background="new 0 0 30 30" xml:space="preserve">
<g>
	<path fill="#BBBDC0" d="M28.44,5.208c-0.029,0.007-0.065-0.046-0.098-0.158c-0.033-0.111-0.087-0.154-0.159-0.132
		c-0.07,0.024-0.152,0.01-0.245-0.042H2.061c-0.147,0-0.28,0.053-0.396,0.167C1.555,5.153,1.5,5.284,1.5,5.439
		c0,1.966,0.862,3.631,2.584,4.991c2.262,1.783,4.611,3.639,7.047,5.571c0.072,0.059,0.277,0.233,0.619,0.52s0.607,0.507,0.805,0.66
		c0.201,0.152,0.463,0.337,0.784,0.554c0.321,0.217,0.615,0.377,0.89,0.483c0.269,0.105,0.517,0.159,0.752,0.159h0.039
		c0.229,0,0.483-0.053,0.752-0.159c0.274-0.106,0.568-0.266,0.89-0.483c0.321-0.216,0.582-0.402,0.784-0.554
		c0.197-0.152,0.464-0.373,0.806-0.66c0.341-0.287,0.545-0.461,0.618-0.52c2.436-1.933,4.785-3.789,7.047-5.571
		c0.634-0.504,1.221-1.181,1.767-2.031c0.546-0.848,0.817-1.62,0.817-2.31V5.894V5.656c0,0-0.002-0.073-0.008-0.227
		C28.483,5.275,28.469,5.203,28.44,5.208z"/>
	<path fill="#BBBDC0" d="M19.799,18.165c-0.6,0.504-1.083,0.896-1.458,1.176c-0.378,0.285-0.884,0.566-1.522,0.855
		c-0.637,0.288-1.239,0.431-1.799,0.431H14.98c-0.561,0-1.163-0.143-1.8-0.431c-0.638-0.289-1.144-0.57-1.521-0.855
		c-0.375-0.28-0.858-0.672-1.458-1.176c-1.851-1.547-4.35-3.529-7.489-5.942c-0.431-0.35-0.837-0.74-1.212-1.16v13.5
		c0,0.154,0.055,0.284,0.165,0.395c0.115,0.114,0.248,0.167,0.396,0.167h25.878c0.148,0,0.282-0.053,0.395-0.167
		c0.112-0.11,0.167-0.24,0.167-0.395v-13.5c-0.375,0.42-0.78,0.81-1.212,1.16C24.147,14.636,21.65,16.618,19.799,18.165z"/>
</g>
</svg>
