<?xml version="1.0" encoding="utf-8"?>
<!-- Generator: Adobe Illustrator 16.0.4, SVG Export Plug-In . SVG Version: 6.00 Build 0)  -->
<!DOCTYPE svg PUBLIC "-//W3C//DTD SVG 1.1//EN" "http://www.w3.org/Graphics/SVG/1.1/DTD/svg11.dtd">
<svg version="1.1" id="Layer_1" xmlns="http://www.w3.org/2000/svg" xmlns:xlink="http://www.w3.org/1999/xlink" x="0px" y="0px"
	 width="386px" height="455px" viewBox="3.699 -0.832 386 455" enable-background="new 3.699 -0.832 386 455" xml:space="preserve">
<g>
	<g>
		<path fill="#DFDFDE" d="M385.816,449.066c0,1.1-0.9,2-2,2H9.583c-1.1,0-2-0.9-2-2V4.27c0-1.1,0.9-2,2-2h374.234c1.1,0,2,0.9,2,2
			V449.066z"/>
	</g>
	<rect x="18.058" y="35.596" fill="#2B3847" width="358.336" height="407.026"/>
	<path fill="#F0625C" d="M36.065,19.361c0,3.076-2.493,5.567-5.566,5.567c-3.079,0-5.569-2.491-5.569-5.567
		c0-3.072,2.49-5.569,5.569-5.569C33.573,13.792,36.065,16.289,36.065,19.361z"/>
	<circle fill="#FFC330" cx="47.205" cy="19.361" r="5.57"/>
	<circle fill="#4EB648" cx="63.911" cy="19.361" r="5.568"/>
	<g>
		<path fill="#7C8FA4" d="M363.836,70.115c0,1.1-0.9,2-2,2H32.497c-1.1,0-2-0.9-2-2v-7.112c0-1.1,0.9-2,2-2h329.339c1.1,0,2,0.9,2,2
			V70.115z"/>
	</g>
	<g>
		<path fill="#7C8FA4" d="M303,97.919c0,1.1-0.9,2-2,2H32.497c-1.1,0-2-0.9-2-2v-7.111c0-1.1,0.9-2,2-2H301c1.1,0,2,0.9,2,2V97.919z
			"/>
	</g>
	<g>
		<path fill="#7C8FA4" d="M363.836,125.724c0,1.1-0.9,2-2,2H32.497c-1.1,0-2-0.9-2-2v-7.112c0-1.1,0.9-2,2-2h329.339
			c1.1,0,2,0.9,2,2V125.724z"/>
	</g>
	<g>
		<path fill="#7C8FA4" d="M230.016,153.527c0,1.1-0.9,2-2,2H32.497c-1.1,0-2-0.9-2-2v-7.112c0-1.1,0.9-2,2-2h195.519
			c1.1,0,2,0.9,2,2V153.527z"/>
	</g>
	<g>
		<path fill="#7C8FA4" d="M341.926,181.332c0,1.1-0.9,2-2,2H32.497c-1.1,0-2-0.9-2-2v-7.113c0-1.1,0.9-2,2-2h307.429
			c1.1,0,2,0.9,2,2V181.332z"/>
	</g>
	<g>
		<path fill="#7C8FA4" d="M218.895,223.039c0,1.1-0.9,2-2,2H32.497c-1.1,0-2-0.9-2-2v-7.114c0-1.1,0.9-2,2-2h184.398
			c1.1,0,2,0.9,2,2V223.039z"/>
	</g>
	<g>
		<path fill="#7C8FA4" d="M363.836,250.843c0,1.1-0.9,2-2,2H32.497c-1.1,0-2-0.9-2-2v-7.113c0-1.1,0.9-2,2-2h329.339
			c1.1,0,2,0.9,2,2V250.843z"/>
	</g>
	<g>
		<path fill="#7C8FA4" d="M333.586,278.646c0,1.1-0.9,2-2,2H32.497c-1.1,0-2-0.9-2-2v-7.113c0-1.1,0.9-2,2-2h299.089
			c1.1,0,2,0.9,2,2V278.646z"/>
	</g>
	<g>
		<path fill="#7C8FA4" d="M284.232,306.451c0,1.1-0.9,2-2,2H32.497c-1.1,0-2-0.9-2-2v-7.113c0-1.1,0.9-2,2-2h249.736
			c1.1,0,2,0.9,2,2V306.451z"/>
	</g>
	<g>
		<path fill="#7C8FA4" d="M363.836,334.255c0,1.1-0.9,2-2,2H32.497c-1.1,0-2-0.9-2-2v-7.113c0-1.1,0.9-2,2-2h329.339
			c1.1,0,2,0.9,2,2V334.255z"/>
	</g>
</g>
</svg>
