<?xml version="1.0" encoding="utf-8"?>
<!-- Generator: Adobe Illustrator 16.0.4, SVG Export Plug-In . SVG Version: 6.00 Build 0)  -->
<!DOCTYPE svg PUBLIC "-//W3C//DTD SVG 1.1//EN" "http://www.w3.org/Graphics/SVG/1.1/DTD/svg11.dtd">
<svg version="1.1" id="Layer_1" xmlns="http://www.w3.org/2000/svg" xmlns:xlink="http://www.w3.org/1999/xlink" x="0px" y="0px"
	 width="30px" height="30px" viewBox="0 0 30 30" enable-background="new 0 0 30 30" xml:space="preserve">
<path fill-rule="evenodd" clip-rule="evenodd" fill="#BBBDC0" d="M14.999,2.81C8.099,2.81,2.5,8.406,2.5,15.31
	c0,5.521,3.581,10.207,8.549,11.86c0.625,0.114,0.854-0.271,0.854-0.603c0-0.295-0.013-1.083-0.016-2.125
	c-3.479,0.756-4.213-1.676-4.213-1.676c-0.569-1.443-1.387-1.828-1.387-1.828c-1.137-0.775,0.085-0.76,0.085-0.76
	c1.255,0.088,1.915,1.288,1.915,1.288c1.114,1.911,2.925,1.359,3.638,1.039c0.113-0.808,0.437-1.357,0.793-1.67
	c-2.775-0.316-5.691-1.387-5.691-6.178c0-1.364,0.486-2.481,1.285-3.354c-0.129-0.316-0.557-1.587,0.123-3.308
	c0,0,1.049-0.336,3.437,1.282C12.867,8.999,13.938,8.858,15,8.854c1.062,0.004,2.133,0.145,3.13,0.421
	c2.386-1.618,3.433-1.282,3.433-1.282c0.683,1.721,0.255,2.992,0.125,3.308c0.802,0.873,1.284,1.989,1.284,3.354
	c0,4.803-2.921,5.858-5.707,6.168c0.451,0.386,0.849,1.15,0.849,2.315c0,1.67-0.015,3.018-0.015,3.428
	c0,0.334,0.227,0.722,0.86,0.601C23.922,25.514,27.5,20.83,27.5,15.31C27.5,8.406,21.901,2.81,14.999,2.81z"/>
</svg>
