<?xml version="1.0" encoding="utf-8"?>
<!-- Generator: Adobe Illustrator 16.0.4, SVG Export Plug-In . SVG Version: 6.00 Build 0)  -->
<!DOCTYPE svg PUBLIC "-//W3C//DTD SVG 1.1//EN" "http://www.w3.org/Graphics/SVG/1.1/DTD/svg11.dtd">
<svg version="1.1" id="Layer_1" xmlns="http://www.w3.org/2000/svg" xmlns:xlink="http://www.w3.org/1999/xlink" x="0px" y="0px"
	 width="54px" height="54px" viewBox="0 0 54 54" enable-background="new 0 0 54 54" xml:space="preserve">
<g>
	<g>
		<g>
			<path fill="#FFFFFF" d="M1.167,9.7h4.559v12.671l3.411-5.414h3.633l3.411,5.242V9.7h4.367v19.756h-5.433l-4.257-6.719L6.6,29.456
				H1.167V9.7"/>
			<path fill="#FFFFFF" d="M52.266,21.783c-0.289-0.575-0.712-1.092-1.265-1.554c-0.557-0.462-1.237-0.876-2.045-1.244
				c-0.809-0.368-1.743-0.712-2.803-1.032c-0.966-0.283-1.75-0.541-2.352-0.778c-0.604-0.234-1.081-0.461-1.43-0.678
				c-0.35-0.216-0.592-0.434-0.725-0.649c-0.131-0.217-0.197-0.457-0.197-0.721c0-0.491,0.246-0.89,0.742-1.201
				c0.493-0.312,1.161-0.467,2.006-0.467c0.989,0,1.912,0.155,2.769,0.467c0.854,0.312,1.707,0.71,2.549,1.201l2.786-2.997
				c-1.085-0.847-2.321-1.445-3.707-1.794c-1.388-0.349-2.767-0.523-4.142-0.523c-1.231,0-2.341,0.138-3.33,0.411
				c-0.988,0.273-1.838,0.66-2.55,1.159c-0.712,0.499-1.254,1.097-1.628,1.795c-0.373,0.696-0.562,1.459-0.562,2.288
				s0.157,1.545,0.472,2.149c0.312,0.603,0.765,1.13,1.356,1.583c0.59,0.452,1.319,0.858,2.188,1.215
				c0.868,0.357,1.857,0.705,2.966,1.045c0.893,0.246,1.621,0.471,2.19,0.679c0.564,0.207,0.998,0.415,1.3,0.622
				c0.303,0.208,0.508,0.42,0.615,0.636c0.11,0.217,0.163,0.448,0.163,0.693c0,0.583-0.294,1.036-0.886,1.356
				c-0.592,0.321-1.586,0.303-2.526,0.303l-12.754,0.008h-4.026v-4.019h11.167c-0.776-0.366-1.463-0.775-2.047-1.223
				c-0.822-0.629-1.459-1.371-1.892-2.206c-0.045-0.083-0.084-0.169-0.123-0.257l-7.105,0.006v-4.597h6.903
				c0.113-0.341,0.255-0.673,0.426-0.994c0.507-0.945,1.256-1.771,2.227-2.452c0.154-0.109,0.315-0.211,0.479-0.312H22.271v19.756
				h9.198h0.236c6.277,0,1.397,0,7.953,0c1.654,0,3.218,0,4.834,0c1.158,0,2.203-0.019,3.215-0.283
				c1.014-0.263,1.888-0.639,2.623-1.13c0.735-0.49,1.314-1.098,1.737-1.822c0.421-0.727,0.632-1.541,0.632-2.445
				C52.699,23.021,52.554,22.358,52.266,21.783z"/>
		</g>
	</g>
	<g>
		<g>
			<g>
				<path fill="#FFFFFF" d="M20.272,40.857l-0.367-0.588h-1.521v-8.854h-2.442V42.34h5.868
					C21.237,41.979,20.669,41.494,20.272,40.857z"/>
			</g>
			<path fill="#FFFFFF" d="M9.101,31.524h2.308v10.847H8.141l-1.854-3.657l-1.853,3.657H1.167V31.524h2.409v6.957l1.801-2.974h1.921
				l1.802,2.88V31.524z"/>
			<g>
				<rect x="12.455" y="35.075" fill="#FFFFFF" width="2.408" height="7.251"/>
				<rect x="12.455" y="31.415" fill="#FFFFFF" width="2.408" height="2.174"/>
			</g>
			<g>
				<path fill="#FFFFFF" d="M28.818,36.944c-0.185-0.143-0.392-0.277-0.623-0.4c-0.375-0.202-0.81-0.394-1.305-0.568
					c-0.449-0.157-0.813-0.298-1.095-0.427c-0.281-0.131-0.502-0.256-0.666-0.374c-0.162-0.12-0.274-0.239-0.336-0.358
					c-0.062-0.121-0.093-0.252-0.093-0.397c0-0.27,0.116-0.49,0.346-0.661c0.229-0.171,0.542-0.257,0.935-0.257
					c0.46,0,0.89,0.086,1.289,0.257s0.794,0.392,1.187,0.661l1.298-1.648c-0.506-0.468-1.081-0.797-1.727-0.989
					c-0.646-0.192-1.289-0.288-1.929-0.288c-0.573,0-1.089,0.075-1.55,0.226c-0.46,0.151-0.856,0.364-1.187,0.638
					c-0.332,0.275-0.584,0.605-0.757,0.989c-0.176,0.383-0.262,0.804-0.262,1.261c0,0.456,0.072,0.851,0.219,1.182
					c0.146,0.333,0.356,0.624,0.632,0.872c0.274,0.249,0.614,0.473,1.019,0.67c0.405,0.197,0.865,0.388,1.381,0.574
					c0.415,0.136,0.755,0.261,1.019,0.375c0.264,0.114,0.466,0.228,0.605,0.343c0.141,0.112,0.237,0.23,0.287,0.35
					c0.05,0.118,0.076,0.245,0.076,0.379c0,0.324-0.139,0.572-0.412,0.75c-0.277,0.175-0.633,0.264-1.071,0.264
					c-0.606,0-1.14-0.117-1.601-0.351c-0.459-0.232-0.886-0.511-1.279-0.834l-1.845,1.09c0.591,0.946,1.786,1.492,2.51,1.736
					c0.725,0.243,1.462,0.365,2.215,0.365c0.539,0,1.045-0.071,1.517-0.219c0.472-0.145,0.878-0.352,1.22-0.622
					c0.344-0.27,0.611-0.604,0.81-1.003c0.051-0.104,0.091-0.21,0.13-0.32c-0.144-0.229-0.273-0.468-0.391-0.716
					C29.017,38.698,28.826,37.841,28.818,36.944z"/>
			</g>
			<path fill="#FFFFFF" d="M36.002,31.432c0.821,0,1.59,0.143,2.308,0.428c0.719,0.285,1.347,0.675,1.879,1.167
				c0.534,0.493,0.955,1.07,1.264,1.736c0.31,0.663,0.463,1.374,0.463,2.132c0,0.756-0.153,1.468-0.463,2.132
				c-0.309,0.661-0.729,1.242-1.264,1.733c-0.532,0.494-1.16,0.882-1.879,1.168c-0.718,0.285-1.486,0.429-2.308,0.429
				c-0.819,0-1.588-0.144-2.307-0.429c-0.719-0.286-1.345-0.674-1.88-1.168c-0.532-0.491-0.952-1.072-1.262-1.733
				c-0.309-0.664-0.464-1.376-0.464-2.132c0-0.758,0.155-1.469,0.464-2.132c0.31-0.666,0.729-1.243,1.262-1.736
				c0.535-0.492,1.161-0.882,1.88-1.167S35.183,31.432,36.002,31.432z M36.002,40.177c0.483,0,0.945-0.087,1.382-0.265
				c0.439-0.176,0.82-0.413,1.146-0.717c0.327-0.3,0.584-0.647,0.776-1.041c0.19-0.393,0.284-0.814,0.284-1.26
				c0-0.468-0.094-0.909-0.284-1.323c-0.192-0.415-0.449-0.775-0.776-1.082c-0.325-0.307-0.706-0.548-1.146-0.723
				c-0.437-0.178-0.898-0.266-1.382-0.266c-0.505,0-0.977,0.088-1.413,0.266c-0.438,0.175-0.815,0.416-1.13,0.723
				c-0.313,0.307-0.561,0.667-0.741,1.082c-0.18,0.414-0.269,0.855-0.269,1.323c0,0.445,0.089,0.867,0.269,1.26
				c0.181,0.394,0.428,0.741,0.741,1.041c0.314,0.304,0.691,0.541,1.13,0.717C35.025,40.09,35.497,40.177,36.002,40.177z"/>
			<g>
				<path fill="#FFFFFF" d="M50.19,31.432v2.318v0.654v3.734l-2.225-2.709l-3.334-3.998h-2.325v2.27
					c0.114,0.193,0.219,0.392,0.314,0.597c0.376,0.809,0.567,1.682,0.567,2.597c0,0.913-0.191,1.787-0.567,2.595
					c-0.096,0.206-0.2,0.404-0.314,0.596v2.255h2.544v-6.91l5.643,6.91h2.206v-8.59v-2.318H50.19z"/>
			</g>
		</g>
	</g>
	<g>
		<g>
			<g>
				<g>
					<path fill="#FFFFFF" d="M18.272,6.976V1.251h1.384v5.724H18.272z"/>
					<path fill="#FFFFFF" d="M26.3,6.976l-0.473-1.363h-2.38l-0.473,1.363h-1.492l2.304-5.748h1.693l2.313,5.748H26.3z
						 M25.497,4.596c-0.438-1.234-0.684-1.933-0.739-2.095c-0.055-0.162-0.095-0.29-0.119-0.383
						c-0.098,0.333-0.379,1.16-0.844,2.478H25.497z"/>
					<path fill="#FFFFFF" d="M31.378,6.976l-1.572-4.49h-0.04c0.057,0.914,0.085,1.523,0.085,1.828v2.662h-1.237V1.251h1.885
						l1.545,4.377h0.026l1.639-4.377h1.885v5.724h-1.29V4.267c0-0.128,0.002-0.275,0.007-0.442c0.004-0.167,0.024-0.611,0.06-1.331
						h-0.04l-1.684,4.482H31.378z"/>
				</g>
			</g>
			<rect x="1.167" y="1.228" fill="#FFFFFF" width="15.215" height="5.748"/>
			<rect x="37.484" y="1.228" fill="#FFFFFF" width="15.215" height="5.748"/>
		</g>
	</g>
	<rect x="1.167" y="44.975" fill="#FFFFFF" width="51.533" height="5.747"/>
</g>
</svg>
