<?xml version="1.0" encoding="utf-8"?>
<!-- Generator: Adobe Illustrator 16.0.4, SVG Export Plug-In . SVG Version: 6.00 Build 0)  -->
<!DOCTYPE svg PUBLIC "-//W3C//DTD SVG 1.1//EN" "http://www.w3.org/Graphics/SVG/1.1/DTD/svg11.dtd">
<svg version="1.1" id="Layer_1" xmlns="http://www.w3.org/2000/svg" xmlns:xlink="http://www.w3.org/1999/xlink" x="0px" y="0px"
	 width="30px" height="30px" viewBox="0 0 30 30" enable-background="new 0 0 30 30" xml:space="preserve">
<g>
	<path fill="#BBBDC0" d="M132.106-57.251c-0.029,0.007-0.064-0.046-0.098-0.158c-0.033-0.111-0.086-0.154-0.158-0.132
		c-0.07,0.024-0.152,0.01-0.246-0.042h-25.877c-0.148,0-0.281,0.053-0.396,0.167c-0.109,0.111-0.164,0.242-0.164,0.397
		c0,1.966,0.861,3.631,2.584,4.991c2.262,1.783,4.611,3.639,7.047,5.571c0.072,0.059,0.277,0.233,0.619,0.52s0.607,0.507,0.805,0.66
		c0.201,0.152,0.463,0.337,0.783,0.554c0.322,0.217,0.615,0.377,0.891,0.483c0.268,0.105,0.516,0.159,0.752,0.159h0.039
		c0.229,0,0.482-0.053,0.752-0.159c0.273-0.106,0.568-0.266,0.889-0.483c0.322-0.216,0.582-0.402,0.785-0.554
		c0.197-0.152,0.463-0.373,0.805-0.66s0.545-0.461,0.619-0.52c2.436-1.933,4.785-3.789,7.047-5.571
		c0.633-0.504,1.221-1.181,1.766-2.031c0.547-0.848,0.818-1.62,0.818-2.31v-0.195v-0.238c0,0-0.002-0.073-0.008-0.227
		C132.149-57.183,132.136-57.256,132.106-57.251z"/>
	<path fill="#BBBDC0" d="M123.466-44.294c-0.6,0.504-1.084,0.896-1.459,1.176c-0.377,0.285-0.883,0.566-1.521,0.855
		c-0.637,0.288-1.24,0.431-1.799,0.431h-0.039c-0.561,0-1.164-0.143-1.801-0.431c-0.637-0.289-1.143-0.57-1.521-0.855
		c-0.375-0.28-0.857-0.672-1.457-1.176c-1.852-1.547-4.35-3.529-7.49-5.942c-0.43-0.35-0.836-0.74-1.211-1.16v13.5
		c0,0.154,0.055,0.284,0.164,0.395c0.115,0.114,0.248,0.167,0.396,0.167h25.877c0.148,0,0.283-0.053,0.395-0.167
		c0.113-0.11,0.168-0.24,0.168-0.395v-13.5c-0.375,0.42-0.781,0.81-1.213,1.16C127.813-47.823,125.317-45.841,123.466-44.294z"/>
</g>
<path fill="#BBBDC0" d="M128.521-88.141c-2.49,0.063-4.663-0.772-6.758-2.067c-0.85-0.661-1.732-1.248-2.682-1.719v10.25
	c0,0-1.396,4.482-6.322,4.482c-4.404,0-4.553-3.71-4.553-3.71s-0.586-2.351,2.537-4.593c3.122-2.24,6.609-0.329,6.609-0.329v-6.793
	c-1.145-0.357-2.363-0.554-3.637-0.554c-6.47,0-11.717,5.033-11.717,11.24c0,6.208,5.247,11.242,11.717,11.242
	c6.475,0,11.721-5.034,11.721-11.242c0-0.527-0.04-1.046-0.111-1.557c1.996-0.691,2.977-2.153,2.977-2.153
	c0.512-0.55,0.697-1.137,0.697-1.653C129-88.243,128.521-88.141,128.521-88.141z"/>
<path fill-rule="evenodd" clip-rule="evenodd" fill="#BBBDC0" d="M82.999-94.124c-6.9,0-12.499,5.596-12.499,12.5
	c0,5.521,3.581,10.207,8.549,11.86c0.625,0.114,0.854-0.271,0.854-0.603c0-0.295-0.013-1.083-0.016-2.125
	c-3.479,0.756-4.213-1.676-4.213-1.676c-0.569-1.443-1.387-1.828-1.387-1.828c-1.137-0.775,0.085-0.76,0.085-0.76
	c1.255,0.088,1.915,1.288,1.915,1.288c1.114,1.911,2.925,1.359,3.638,1.039c0.113-0.808,0.437-1.357,0.793-1.67
	c-2.775-0.316-5.691-1.387-5.691-6.178c0-1.364,0.486-2.481,1.285-3.354c-0.129-0.316-0.557-1.587,0.123-3.308
	c0,0,1.049-0.336,3.437,1.282c0.996-0.277,2.066-0.417,3.129-0.421c1.062,0.004,2.133,0.145,3.13,0.421
	c2.386-1.618,3.433-1.282,3.433-1.282c0.683,1.721,0.255,2.992,0.125,3.308c0.802,0.873,1.284,1.989,1.284,3.354
	c0,4.803-2.921,5.858-5.707,6.168c0.451,0.386,0.849,1.15,0.849,2.315c0,1.67-0.015,3.018-0.015,3.428
	c0,0.334,0.227,0.722,0.86,0.601c4.963-1.654,8.541-6.338,8.541-11.858C95.5-88.528,89.901-94.124,82.999-94.124z"/>
<path fill="#BBBDC0" d="M40.484-93.027c-1.04,0.463-2.159,0.774-3.333,0.916c1.197-0.719,2.119-1.856,2.553-3.213
	c-1.124,0.666-2.364,1.148-3.688,1.409c-1.059-1.128-2.568-1.833-4.238-1.833c-3.206,0-5.807,2.601-5.807,5.807
	c0,0.455,0.052,0.898,0.151,1.323c-4.827-0.243-9.106-2.554-11.97-6.066c-0.499,0.857-0.786,1.854-0.786,2.919
	c0,2.014,1.026,3.791,2.583,4.833c-0.951-0.031-1.847-0.292-2.63-0.727c0,0.024-0.001,0.049-0.001,0.073
	c0,2.812,2.002,5.16,4.659,5.693c-0.487,0.133-1.001,0.204-1.53,0.204c-0.375,0-0.738-0.037-1.093-0.104
	c0.739,2.307,2.884,3.985,5.424,4.032c-1.987,1.557-4.49,2.486-7.211,2.486c-0.468,0-0.931-0.027-1.385-0.082
	c2.57,1.647,5.622,2.608,8.901,2.608c10.681,0,16.521-8.848,16.521-16.52c0-0.251-0.006-0.502-0.019-0.751
	C38.724-90.84,39.706-91.862,40.484-93.027z"/>
<path fill="#BBBDC0" d="M-22.307-70.75V-82.48h-3.102v-4.224h3.102c0,0,0-1.73,0-3.607c0-2.834,1.832-5.438,6.054-5.438
	c1.71,0,2.974,0.164,2.974,0.164l-0.1,3.944c0,0-1.289-0.013-2.695-0.013c-1.522,0-1.767,0.702-1.767,1.866c0,0.921,0-1.962,0,3.084
	h4.583l-0.199,4.224h-4.384v11.731H-22.307z"/>
<g>
	<defs>
		<path id="SVGID_1_" d="M-59.666-70.767c-6.894,0-12.501-5.6-12.501-12.482c0-6.884,5.607-12.483,12.501-12.483
			c6.892,0,12.499,5.6,12.499,12.483C-47.167-76.366-52.774-70.767-59.666-70.767L-59.666-70.767z M-49.125-81.541
			c-0.365-0.115-3.305-0.99-6.65-0.455c1.396,3.832,1.965,6.953,2.074,7.602C-51.306-76.012-49.601-78.574-49.125-81.541
			L-49.125-81.541z M-55.496-73.418c-0.158-0.936-0.778-4.196-2.277-8.086c-0.023,0.008-0.047,0.016-0.07,0.023
			c-6.022,2.096-8.185,6.267-8.377,6.659c1.811,1.409,4.086,2.251,6.555,2.251C-58.188-72.57-56.777-72.873-55.496-73.418
			L-55.496-73.418z M-67.599-76.104c0.241-0.413,3.172-5.258,8.679-7.036c0.139-0.044,0.279-0.087,0.421-0.126
			c-0.269-0.606-0.561-1.213-0.866-1.81c-5.332,1.594-10.506,1.526-10.973,1.518c-0.004,0.107-0.006,0.217-0.006,0.325
			C-70.344-80.495-69.304-77.994-67.599-76.104L-67.599-76.104z M-70.118-85.417c0.478,0.006,4.876,0.025,9.871-1.299
			c-1.77-3.141-3.678-5.781-3.959-6.167C-67.193-91.476-69.426-88.726-70.118-85.417L-70.118-85.417z M-62.169-93.6
			c0.295,0.395,2.234,3.032,3.984,6.242c3.797-1.421,5.403-3.578,5.596-3.852c-1.886-1.671-4.365-2.687-7.077-2.687
			C-60.528-93.896-61.366-93.793-62.169-93.6L-62.169-93.6z M-51.401-89.976c-0.226,0.304-2.015,2.594-5.962,4.204
			c0.248,0.508,0.486,1.024,0.708,1.544c0.078,0.185,0.155,0.368,0.229,0.551c3.553-0.446,7.083,0.269,7.435,0.343
			C-49.015-85.851-49.915-88.161-51.401-89.976L-51.401-89.976z"/>
	</defs>
	<use xlink:href="#SVGID_1_"  overflow="visible" fill-rule="evenodd" clip-rule="evenodd" fill="#BBBDC0"/>
	<clipPath id="SVGID_2_">
		<use xlink:href="#SVGID_1_"  overflow="visible"/>
	</clipPath>
</g>
<g>
	<g>
		<defs>
			<rect id="SVGID_3_" x="1.704" y="5.875" width="26.796" height="18.055"/>
		</defs>
		<clipPath id="SVGID_4_">
			<use xlink:href="#SVGID_3_"  overflow="visible"/>
		</clipPath>
		<path clip-path="url(#SVGID_4_)" fill="#BBBDC0" d="M25.03,13.933c0.017-0.196,0.033-0.39,0.033-0.587
			c0-4.236-3.435-7.666-7.666-7.666c-3.092,0-5.75,1.836-6.961,4.47C9.797,9.697,9.017,9.429,8.174,9.429
			c-2.163,0-3.912,1.753-3.912,3.917c0,0.323,0.042,0.637,0.118,0.939c-1.594,0.868-2.676,2.558-2.676,4.5
			c0,2.831,2.294,5.125,5.124,5.125h16.558c2.831,0,5.125-2.294,5.125-5.125C28.511,16.529,27.056,14.622,25.03,13.933L25.03,13.933
			z M24.732,18.303c-0.176,1.857-1.464,3.837-4.554,3.837c-2.336,0-4.559-2.479-5.527-3.858c-0.004-0.004-1.812-2.797-3.816-2.726
			c-1.958,0.071-2.475,1.103-2.563,2.025c-0.088,0.923,0.44,1.871,1.283,2.307c1.058,0.545,2.378,0.21,3.712-0.948l1.308,1.514
			c-1.287,1.12-2.662,1.69-3.966,1.694c-0.684,0-1.351-0.16-1.972-0.479c-1.577-0.813-2.525-2.533-2.356-4.277
			c0.176-1.854,1.463-3.837,4.555-3.837c2.759,0,4.697,2.507,5.326,3.384c1.044,1.456,2.868,3.2,4.018,3.2
			c1.958,0,2.474-1.103,2.562-2.026c0.088-0.922-0.44-1.87-1.283-2.307c-1.057-0.542-2.374-0.209-3.711,0.948l-1.309-1.514
			c1.967-1.703,4.131-2.143,5.938-1.212C23.952,14.843,24.899,16.558,24.732,18.303L24.732,18.303z M24.732,18.303"/>
	</g>
</g>
</svg>
