<?xml version="1.0" encoding="utf-8"?>
<!-- Generator: Adobe Illustrator 22.1.0, SVG Export Plug-In . SVG Version: 6.00 Build 0)  -->
<svg version="1.1" id="Layer_1" xmlns="http://www.w3.org/2000/svg" xmlns:xlink="http://www.w3.org/1999/xlink" x="0px" y="0px"
	 viewBox="0 0 634.3 1353" style="enable-background:new 0 0 634.3 1353;" xml:space="preserve">
<style type="text/css">
	.st0{fill:#FFFFFF;}
</style>
<path class="st0" d="M317.1,332.6c-5.2,0-10.4-2-14.3-5.9L9.8,39.1c-8.1-7.9-8.2-20.9-0.3-28.9c7.9-8.1,20.9-8.2,28.9-0.3
	l278.6,273.6L595.8,9.9c8.1-7.9,21-7.8,28.9,0.3c7.9,8.1,7.8,21-0.3,28.9l-293,287.7C327.5,330.7,322.3,332.6,317.1,332.6z"/>
<path class="st0" d="M317.1,840.8c-5.2,0-10.4-2-14.3-5.9L9.8,547.2c-8.1-7.9-8.2-20.9-0.3-28.9c7.9-8.1,20.9-8.2,28.9-0.3
	l278.6,273.6L595.8,518c8.1-7.9,21-7.8,28.9,0.3c7.9,8.1,7.8,21-0.3,28.9l-293,287.7C327.5,838.8,322.3,840.8,317.1,840.8z"/>
<path class="st0" d="M317.1,1349c-5.2,0-10.4-2-14.3-5.9l-293-287.7c-8.1-7.9-8.2-20.9-0.3-28.9c7.9-8.1,20.9-8.2,28.9-0.3
	l278.6,273.6l278.6-273.6c8.1-7.9,21-7.8,28.9,0.3c7.9,8.1,7.8,21-0.3,28.9l-293,287.7C327.5,1347,322.3,1349,317.1,1349z"/>
</svg>
