<?xml version="1.0" encoding="utf-8"?>
<!-- Generator: Adobe Illustrator 16.0.4, SVG Export Plug-In . SVG Version: 6.00 Build 0)  -->
<!DOCTYPE svg PUBLIC "-//W3C//DTD SVG 1.1//EN" "http://www.w3.org/Graphics/SVG/1.1/DTD/svg11.dtd">
<svg version="1.1" id="Layer_1" xmlns="http://www.w3.org/2000/svg" xmlns:xlink="http://www.w3.org/1999/xlink" x="0px" y="0px"
	 width="30px" height="30px" viewBox="0 0 30 30" enable-background="new 0 0 30 30" xml:space="preserve">
<path fill="#BBBDC0" d="M28.021,8.792c-2.49,0.063-4.663-0.772-6.758-2.067c-0.85-0.661-1.732-1.248-2.682-1.719v10.25
	c0,0-1.396,4.482-6.322,4.482c-4.404,0-4.553-3.71-4.553-3.71s-0.586-2.351,2.537-4.593c3.122-2.24,6.609-0.329,6.609-0.329V4.313
	c-1.145-0.357-2.363-0.554-3.637-0.554C6.747,3.759,1.5,8.792,1.5,14.999c0,6.208,5.247,11.242,11.717,11.242
	c6.475,0,11.721-5.034,11.721-11.242c0-0.527-0.04-1.046-0.111-1.557c1.996-0.691,2.977-2.153,2.977-2.153
	c0.512-0.55,0.697-1.137,0.697-1.653C28.5,8.691,28.021,8.792,28.021,8.792z"/>
</svg>
