<?xml version="1.0" encoding="utf-8"?>
<!-- Generator: Adobe Illustrator 16.0.4, SVG Export Plug-In . SVG Version: 6.00 Build 0)  -->
<!DOCTYPE svg PUBLIC "-//W3C//DTD SVG 1.1//EN" "http://www.w3.org/Graphics/SVG/1.1/DTD/svg11.dtd">
<svg version="1.1" id="Layer_1" xmlns="http://www.w3.org/2000/svg" xmlns:xlink="http://www.w3.org/1999/xlink" x="0px" y="0px"
	 width="30px" height="30px" viewBox="0 0 30 30" enable-background="new 0 0 30 30" xml:space="preserve">
<path fill="#BBBDC0" d="M29.15,6.222c-1.04,0.463-2.159,0.774-3.333,0.916c1.197-0.719,2.119-1.856,2.553-3.213
	c-1.124,0.666-2.364,1.148-3.688,1.409C23.624,4.206,22.114,3.5,20.444,3.5c-3.206,0-5.807,2.601-5.807,5.807
	c0,0.455,0.052,0.898,0.151,1.323c-4.827-0.243-9.106-2.554-11.97-6.066C2.32,5.42,2.033,6.418,2.033,7.483
	c0,2.014,1.026,3.791,2.583,4.833c-0.951-0.031-1.847-0.292-2.63-0.727c0,0.024-0.001,0.049-0.001,0.073
	c0,2.812,2.002,5.16,4.659,5.693c-0.487,0.133-1.001,0.204-1.53,0.204c-0.375,0-0.738-0.037-1.093-0.104
	c0.739,2.307,2.884,3.985,5.424,4.032c-1.987,1.557-4.49,2.486-7.211,2.486c-0.468,0-0.931-0.027-1.385-0.082
	C3.42,25.539,6.472,26.5,9.751,26.5c10.681,0,16.521-8.848,16.521-16.52c0-0.251-0.006-0.502-0.019-0.751
	C27.39,8.41,28.372,7.387,29.15,6.222z"/>
</svg>
