<?xml version="1.0" encoding="utf-8"?>
<!-- Generator: Adobe Illustrator 16.0.4, SVG Export Plug-In . SVG Version: 6.00 Build 0)  -->
<!DOCTYPE svg PUBLIC "-//W3C//DTD SVG 1.1//EN" "http://www.w3.org/Graphics/SVG/1.1/DTD/svg11.dtd">
<svg version="1.1" id="Layer_1" xmlns="http://www.w3.org/2000/svg" xmlns:xlink="http://www.w3.org/1999/xlink" x="0px" y="0px"
	 width="386px" height="455px" viewBox="3.699 -0.832 386 455" enable-background="new 3.699 -0.832 386 455" xml:space="preserve">
<g>
	<g>
		<path fill="#DFDFDE" d="M385.816,449.066c0,1.1-0.9,2-2,2H9.582c-1.1,0-2-0.9-2-2V4.27c0-1.1,0.9-2,2-2h374.234c1.1,0,2,0.9,2,2
			V449.066z"/>
	</g>
	<rect x="18.058" y="35.595" fill="#FFFFFF" width="358.336" height="407.03"/>
	<path fill="#F0625C" d="M36.065,19.36c0,3.077-2.492,5.567-5.566,5.567c-3.079,0-5.569-2.49-5.569-5.567
		c0-3.072,2.49-5.569,5.569-5.569C33.573,13.791,36.065,16.288,36.065,19.36z"/>
	<circle fill="#FFC330" cx="47.204" cy="19.36" r="5.57"/>
	<circle fill="#4EB648" cx="63.911" cy="19.36" r="5.567"/>
	<g>
		<path fill="#7C8FA4" d="M363.838,88.514c0,1.1-0.9,2-2,2H32.496c-1.1,0-2-0.9-2-2V49.248c0-1.1,0.9-2,2-2h329.342c1.1,0,2,0.9,2,2
			V88.514z"/>
	</g>
	<g>
		<path fill="#53647C" d="M134.62,430.672c0,1.1-0.9,2-2,2H32.496c-1.1,0-2-0.9-2-2v-329.05c0-1.1,0.9-2,2-2H132.62c1.1,0,2,0.9,2,2
			V430.672z"/>
	</g>
	<g>
		<path fill="#7C8FA4" d="M363.838,347.59c0-1.1-0.9-2-2-2h-214.41c-1.1,0-2,0.9-2,2v83.082c0,1.1,0.9,2,2,2h214.41c1.1,0,2-0.9,2-2
			V347.59z"/>
	</g>
	<g>
		<path fill="#53647C" d="M363.838,101.622c0-1.1-0.9-2-2-2h-214.41c-1.1,0-2,0.9-2,2v231.12c0,1.1,0.9,2,2,2h214.41
			c1.1,0,2-0.9,2-2V101.622z"/>
	</g>
</g>
</svg>
